<svg xmlns="http://www.w3.org/2000/svg" version="1.1" xmlns:xlink="http://www.w3.org/1999/xlink" xmlns:svgjs="http://svgjs.com/svgjs" width="1000" height="1000"><rect width="1000" height="1000" rx="200" ry="200" fill="#9cda16"></rect><g transform="matrix(1,0,0,1,0,0)"><svg xmlns="http://www.w3.org/2000/svg" version="1.1" xmlns:xlink="http://www.w3.org/1999/xlink" xmlns:svgjs="http://svgjs.com/svgjs" width="800px" height="800px"><svg width="800px" height="800px" viewBox="0 0 48 48" fill="none" xmlns="http://www.w3.org/2000/svg">
<path d="M21.37 36C22.82 30.75 27.89 27 33.73 27.62C39.29 28.21 43.71 32.9 43.99 38.48C44.06 39.95 43.86 41.36 43.43 42.67C43.17 43.47 42.39 44 41.54 44H11.7584C6.71004 44 2.92371 39.3814 3.91377 34.4311L9.99994 4H21.9999L25.9999 11L17.43 17.13L14.9999 14" stroke="#000000" stroke-width="4" stroke-miterlimit="2" stroke-linecap="round" stroke-linejoin="round"></path>
<path d="M17.4399 17.13L22 34" stroke="#000000" stroke-width="4" stroke-miterlimit="2" stroke-linecap="round" stroke-linejoin="round"></path>
</svg></svg></g></svg>